<?xml version="1.0" standalone="no"?>
<!DOCTYPE svg PUBLIC "-//W3C//DTD SVG 1.1//EN" "http://www.w3.org/Graphics/SVG/1.1/DTD/svg11.dtd" >
<svg xmlns="http://www.w3.org/2000/svg">
<metadata>Generated by IcoMoon</metadata>
<defs>
<font id="icomoon" horiz-adv-x="1024">
<font-face units-per-em="1024" ascent="960" descent="-64" />
<missing-glyph horiz-adv-x="1024" />
<glyph unicode="&#x20;" horiz-adv-x="512" d="" />
<glyph unicode="&#xe900;" glyph-name="icon_" d="M139.636 634.182v-651.636h744.727v651.636h-744.727zM279.273 680.727v46.545c0 128.532 104.196 232.727 232.727 232.727s232.727-104.196 232.727-232.727v0-46.545h139.636c25.706 0 46.545-20.839 46.545-46.545v0-651.636c0-25.706-20.839-46.545-46.545-46.545v0h-744.727c-25.706 0-46.545 20.839-46.545 46.545v0 651.636c0 25.706 20.839 46.545 46.545 46.545v0h139.636zM530.804 439.529l-16.477-16.477-16.431 16.477c-21.060 21.060-50.155 34.087-82.292 34.087-64.274 0-116.379-52.105-116.379-116.379 0-32.137 13.026-61.232 34.087-82.292l164.585-164.538c4.211-4.21 10.028-6.814 16.454-6.814s12.243 2.604 16.454 6.814l164.538 164.538c21.28 21.094 34.455 50.335 34.455 82.652 0 64.266-52.098 116.364-116.364 116.364-32.306 0-61.538-13.165-82.622-34.424l-0.008-0.008zM514.327 159.791l-148.108 148.108c-13.136 12.712-21.291 30.502-21.291 50.196 0 38.56 31.259 69.818 69.818 69.818 19.718 0 37.526-8.174 50.223-21.318l0.019-0.020 32.908-32.861c4.211-4.21 10.028-6.814 16.454-6.814s12.243 2.604 16.454 6.814l32.908 32.908c12.543 12.126 29.65 19.599 48.504 19.599 38.56 0 69.818-31.259 69.818-69.818 0-18.853-7.473-35.961-19.618-48.523l0.019 0.020-148.108-148.108zM325.818 680.727h372.364v46.545c0 102.825-83.356 186.182-186.182 186.182s-186.182-83.356-186.182-186.182v0-46.545z" />
<glyph unicode="&#xe901;" glyph-name="9" d="M406.612-1.165c0 0-35.816 99.392-110.629 140.006-74.813 40.609-119.701 87.637-115.427 167.79 0 0 40.614-149.628 195.58-133.593 0 0 127.176 231.648 131.456 286.821 4.275 55.177 16.030 84.036-27.79 187.699 0 0 76.949-56.485 82.295-185.881 0 0 222.293 44.809 278.937 197.641 0 0-7.482-124.246-167.79-199.46-160.31-75.211-183.821-304.995-173.138-359.495 10.692-54.505 19.241-95.113 74.815-101.53h-168.309zM322.699 306.632c0 0 34.437 7.199 53.781-13.084 6.449-6.761 11.221-16.578 12.481-30.736 5.038-56.613-25.648-64.124-25.648-64.124s-72.217 5.116-74.815 61.991c-2.599 56.872 34.201 45.954 34.201 45.954zM416.603 613.108c11.384-4.428 40.756 26.971 40.756 26.971s-92.984 55.577-175.276-23.51c0 0 27.79-17.105 42.753-27.79 14.96-10.683 95.113-60.919 132.523 8.55 0 0-47.913 18.564-40.756 15.779zM466.979 693.518c0 0-91.911-43.82-118.632 45.957-26.719 89.773-61.983 137.864-82.293 146.417 0 0 92.984 38.473 191.306-26.721s44.889-152.831 44.889-152.831-27.79 51.297-63.060 67.333c0 0 38.476-52.376 27.79-80.155zM514.361 677.581c0 0 19.168 73.122 69.092 69.591 49.924-3.528 72.616-5.804 81.697 0.125 0 0-7.060-161.496-137.17-98.461 0 0 44.88 29.754 50.431 46.899 0 0.001-46.399-27.737-64.049-18.153zM600.095 492.507c0 0 68.583-1.514 73.624 52.951 5.044 54.466-39.84 66.063-64.044 54.466-24.206-11.599-59.385-59.649-11.596-107.424zM714.065 716.92c0 0 50.93-92.288 71.105-90.272 20.17 2.016 37.82 29.757 28.745 48.415-9.080 18.656-69.091 41.353-99.85 41.857zM827.796 863.071c0 0 93.098-50.668 95.983-105.458 2.886-54.786-35.011-81.894-55.614-85.848 0 0-0.822 59.896-15.65 80.493 0 0 7.828-52.317-16.069-68.795 0 0-47.788 11.945-37.896 56.438 9.883 44.488 35.017 53.955 29.246 123.169zM860.571 634.235c0 0 15.094-64.23 77.314-37.993 62.211 26.233 32.229 15.849 32.229 15.849s-33.73 81.070-103.444 47.231c0 0 21.739-18.104 30.737-21.103 0-0.001-29.45-7.97-36.836-3.984zM186.969 522.517c0 0-87.637-55.575-91.908-130.387-4.277-74.807 54.499-75.879 54.499-75.879s3.86-0.749 9.831-1.069c-1.089 2.862-7.5 22.398 2.15 65.314 0 0 6.558-41.756 24.794-62.749 18.4 4.934 37.543 18.079 41.249 50.874 7.479 66.263-51.302 92.978-40.615 153.897zM121.086 289.174c0 0 25.724 2.331 39.709 12.538-7.956 4.467-81.443 42.984-112.762-37.83 0 0 30.302-48.738 83.36-26.719 32.636 13.546 36.521 34.677 34.68 48.944-2.514-0.715-18.661-4.675-44.987 3.067zM200.989 294.094c6.573 6.38 22.563 20.731 38.276 25.897 0 0-26.148-17.693-35.29-27.866 10.084-2.975 43.22-10.956 67.015 4.473 29.848 19.357 28.199 46.374 32.474 68.816 0 0-95.524-0.019-102.475-71.32z" />
<glyph unicode="&#xe902;" glyph-name="8" d="M842.797 673.008c45.623 0 82.802-37.179 82.802-82.802v-523.67c0-45.623-37.179-82.802-82.802-82.802h-661.477c-45.623 0-82.802 37.179-82.802 82.802v523.67c0 45.623 37.179 82.802 82.802 82.802h661.477zM842.797 718.866h-661.477c-70.839 0-128.777-57.938-128.777-128.777v-523.67c0-70.839 57.938-128.777 128.777-128.777h661.477c70.839 0 128.777 57.938 128.777 128.777v523.787c-0.117 70.839-58.055 128.66-128.777 128.66zM511.941 334.177c-12.667 0-22.988 10.321-22.988 22.988v574.219c0 12.667 10.321 22.988 22.988 22.988s22.988-10.321 22.988-22.988v-574.336c0-12.667-10.204-22.87-22.988-22.87zM381.992 791.816c-5.864 0-11.728 2.228-16.185 6.685-9.031 9.031-9.031 23.457 0 32.487l113.647 113.765c8.679 8.679 20.173 13.488 32.487 13.488s23.808-4.809 32.487-13.488l113.647-113.647c9.031-9.031 9.031-23.457 0-32.487s-23.457-9.031-32.487 0l-113.765 113.647-113.647-113.647c-4.339-4.574-10.204-6.802-16.185-6.802z" />
<glyph unicode="&#xe903;" glyph-name="10" d="M853.376-64h-682.688c-94.144 0-170.688 80-170.688 178.368v667.264c0 98.368 76.544 178.368 170.688 178.368h682.688c94.080 0 170.624-80 170.624-178.368v-667.264c0-98.368-76.544-178.368-170.624-178.368zM170.688 911.296c-67.2 0-121.92-58.176-121.92-129.6v-667.264c0-71.488 54.656-129.6 121.92-129.6h682.688c67.2 0 121.856 58.112 121.856 129.6v667.2c0 71.488-54.656 129.6-121.856 129.6h-682.688zM780.16 399.232c-25.872 1.367-46.333 22.678-46.333 48.768s20.461 47.401 46.211 48.763l0.121 0.005c26.934 0 48.768-21.834 48.768-48.768s-21.834-48.768-48.768-48.768v0zM780.224 448h-0.128l0.064-24.32 0.064 24.32zM999.616 293.632h-316.608c-85.246 0.109-154.323 69.186-154.432 154.422v0.010c0.146 85.219 69.208 154.259 154.421 154.368h316.619c13.467 0 24.384-10.917 24.384-24.384s-10.917-24.384-24.384-24.384v0h-316.608c-58.24 0-105.6-47.424-105.6-105.6 0-58.304 47.36-105.664 105.6-105.664h316.608c13.467 0 24.384-10.917 24.384-24.384s-10.917-24.384-24.384-24.384v0z" />
<glyph unicode="&#xe904;" glyph-name="11" d="M380.891 256.727c-3.538 0-12.937 0-18.941 6.033-6.005 5.977-7.223 15.81-4.41 35.070 1.654 11.197 4.758 25.874 9.196 43.598 7.483 29.732 16.185 57.782 16.533 58.942l0.958 3.047 383.098 383.096 44.293 52.242 0.32 0.32c6.816 6.816 16.128 10.558 26.222 10.558 11.661 0 23.38-5.048 32.17-13.808l63.844-63.845c7.948-7.977 12.82-18.217 13.662-28.832 0.929-11.169-2.813-21.901-10.267-29.413l-0.871-0.841-50.966-44.642-383.125-383.154-3.018-0.958c-32.054-10.183-93.143-27.413-118.698-27.413zM405.981 386.273c-9.571-31.501-18.158-65.208-21.929-85.918l-3.452-19.030 19.058 3.336c24.22 4.264 60.218 14.243 85.86 22.162l21.35 6.585-94.36 94.36-6.526-21.495zM437.078 419.748l81.8-81.83 321.34 321.34-81.83 81.8-321.31-321.31zM782 763.887l1.276-6.381c0.784-3.858 2.872-7.688 5.947-10.733l56.709-56.708c3.075-3.075 6.933-5.193 10.82-5.947l6.554-1.247 5.106 4.554 55.171 48.354-1.914 7.948c-0.9 3.625-2.901 7.078-5.773 9.978l-63.845 63.845c-3.567 3.568-7.28 5.077-9.746 5.714l-8.18 2.089-52.125-61.466zM907.196 512.251c-1.247 7.89 4.148 15.286 12.008 16.534 7.89 1.277 15.316-4.12 16.564-12.009 3.505-20.57 5.509-44.265 5.509-68.427 0-6.764-0.157-13.492-0.468-20.179l0.035 0.947c-1.276-28.978-5.511-58.188-12.85-87.224-29.326-115.797-102.802-208.735-197.887-265.415-95.113-56.68-211.809-77.1-327.547-47.803-115.796 29.325-208.735 102.8-265.415 197.885-56.68 95.113-77.1 211.809-47.803 327.547 29.325 115.797 102.8 208.735 197.885 265.415 95.114 56.68 211.81 77.1 327.549 47.804 11.542-2.889 19.82-5.307 27.997-7.95l-3.225 0.901c11.222-3.51 19.257-6.388 27.18-9.491l-2.96 1.021c7.455-2.843 11.226-11.197 8.383-18.68-2.872-7.484-11.226-11.226-18.709-8.383-4.637 1.941-12.145 4.622-19.75 7.085l-2.875 0.805c-7.716 2.466-15.433 4.641-23.061 6.584-108.11 27.354-217.002 8.355-305.706-44.526-88.703-52.85-157.247-139.581-184.6-247.603-27.354-108.11-8.355-217.002 44.526-305.706 52.85-88.704 139.582-157.247 247.604-184.6 108.109-27.353 217.002-8.355 305.706 44.526 88.704 52.85 157.247 139.581 184.6 247.604 6.903 27.325 10.877 54.562 12.066 81.452 0.259 5.365 0.406 11.652 0.406 17.974 0 22.568-1.877 44.698-5.484 66.242l0.322-2.331z" />
<glyph unicode="&#xe905;" horiz-adv-x="1106" d="M276.337 729.952c-0.432 0.028-0.937 0.044-1.445 0.044-13.143 0-23.798-10.655-23.798-23.798 0-0.622 0.024-1.239 0.071-1.849l-0.005 0.081v-103.469c0-12.761-17.59-25.522-32.765-25.522h-92.432c-14.093-0.003-25.517-11.429-25.517-25.522s11.424-25.519 25.517-25.522h92.778c0.069 0 0.151 0 0.233 0 43.531 0 79.213 33.602 82.524 76.284l0.018 0.284v103.469c0.042 0.529 0.066 1.146 0.066 1.768 0 13.143-10.655 23.798-23.798 23.798-0.508 0-1.013-0.016-1.514-0.047l0.068 0.003z" />
<glyph unicode="&#xe906;" horiz-adv-x="1106" d="M1021.314 959.999h-526.657c-0.124 0.001-0.272 0.001-0.419 0.001-38.096 0-68.979-30.883-68.979-68.979 0-2.674 0.152-5.312 0.448-7.906l-0.029 0.317v-51.39h-161.757c-0.37 0.007-0.806 0.011-1.242 0.011-20.458 0-38.835-8.906-51.468-23.052l-0.059-0.067-193.142-199.35c-11.043-12.959-17.761-29.898-17.761-48.405 0-1.778 0.062-3.542 0.184-5.289l-0.013 0.235v-439.399c-0.267-2.277-0.419-4.915-0.419-7.589 0-38.096 30.883-68.979 68.979-68.979 0.147 0 0.294 0 0.441 0.001h126.554c10.391-50.537 49.717-89.631 99.557-99.541l0.808-0.134c5.544-1.604 11.912-2.526 18.496-2.526 1.38 0 2.75 0.041 4.11 0.12l-0.188-0.009c1.172-0.071 2.543-0.112 3.923-0.112 6.584 0 12.952 0.922 18.982 2.645l-0.487-0.119c50.603 10.132 89.886 49.184 100.221 98.849l0.144 0.826h206.938c10.479-50.491 49.762-89.543 99.551-99.539l0.814-0.136c6.787-1.625 14.58-2.557 22.591-2.557s15.803 0.932 23.276 2.694l-0.685-0.136c50.603 10.132 89.886 49.184 100.221 98.849l0.144 0.826h126.922c0.069 0 0.151 0 0.233 0 43.531 0 79.213 33.602 82.524 76.284l0.018 0.284v766.361c-3.969 42.817-39.363 76.178-82.702 76.911l-0.073 0.001zM319.105-11.231c-0.41-0.008-0.895-0.012-1.38-0.012-42.287 0-76.567 34.28-76.567 76.567s34.28 76.567 76.567 76.567c42.282 0 76.56-34.273 76.567-76.554v-0.001c0.001-0.105 0.001-0.228 0.001-0.352 0-41.733-33.539-75.632-75.133-76.215l-0.055-0.001zM770.574-11.231c-0.41-0.008-0.895-0.012-1.38-0.012-42.287 0-76.567 34.28-76.567 76.567s34.28 76.567 76.567 76.567c42.282 0 76.56-34.273 76.567-76.554v-0.001c0.001-0.105 0.001-0.228 0.001-0.352 0-41.733-33.539-75.632-75.133-76.215l-0.055-0.001zM1054.080 116.381c0-12.761-17.59-25.522-32.765-25.522h-127.957c-10.687 59.005-61.663 103.171-122.956 103.171s-112.269-44.166-122.841-102.41l-0.115-0.762h-206.938c-10.687 59.005-61.663 103.171-122.956 103.171s-112.269-44.166-122.841-102.41l-0.115-0.762h-125.198c-15.175 0-17.59 12.761-17.59 25.522v439.743c0 10.347 0 15.175 2.414 17.935l193.142 199.35c4.128 4.671 10.134 7.601 16.823 7.601 0.27 0 0.538-0.005 0.805-0.014l-0.039 0.001h213.146v103.469c0 12.761 2.414 25.522 17.59 25.522h525.623c15.175 0 32.765-12.761 32.765-25.522z" />
<glyph unicode="&#xe907;" glyph-name="13" d="M512-21.333c-165.077 0-384 316.203-384 554.667 0 211.712 172.288 384 384 384 211.755 0 384-172.288 384-384 0-238.464-218.923-554.667-384-554.667zM512 874.667c-188.203 0-341.333-153.131-341.333-341.333 0-232.448 209.664-512 341.333-512s341.333 279.552 341.333 512c0 188.203-153.131 341.333-341.333 341.333zM512 362.667c-94.123 0-170.667 76.544-170.667 170.667s76.544 170.667 170.667 170.667 170.667-76.544 170.667-170.667-76.544-170.667-170.667-170.667zM512 661.333c-70.571 0-128-57.429-128-128s57.429-128 128-128 128 57.429 128 128-57.429 128-128 128z" />
<glyph unicode="&#xe908;" glyph-name="_" d="M572.6 504.2c-23 0-44.8-9.9-60.5-26.8-15.8 16.9-37.6 26.8-60.6 26.8-46.6 0-84.5-39.3-84.5-87.7 0-1.6 0.1-3.1 0.3-4.3v-1.2c0-8.6 2.1-18 6.1-28 0.1-0.4 0.3-0.7 0.4-1 25.8-61.8 125-132.9 129.2-136.2 2.6-2 5.7-3 8.9-3s6.3 1 9 3.1c3.6 2.8 88.2 63.7 121.8 121.3 1.3 2 2.2 3.8 3.1 5.5 0.3 0.5 0.5 1 0.8 1.5 0.2 0.4 0.3 0.7 0.5 0.8 2 3.9 3.6 7.5 4.9 11.1 3.5 9.1 5.2 17.3 5.2 24.8 0 0.6 0 1.1-0.1 1.6 0.1 1 0.2 2.3 0.2 3.9-0.1 48.5-38.1 87.8-84.7 87.8zM155.7 479.7h-74.6c-12.6 0-20.8 13.2-15.2 24.5l134.3 272.7c14.3 29 43.8 47.4 76.1 47.4h471.5c32.3 0 61.8-18.4 76.1-47.4l134.4-272.7c5.5-11.3-2.6-24.5-15.2-24.5h-74.6v-339.6c0-37.5-30.4-67.9-67.9-67.9h-577c-37.5 0-67.9 30.4-67.9 67.9v339.6z" />
<glyph unicode="&#xe909;" glyph-name="14" d="M308.992 703.296c168.576-155.712 581.568-597.056 609.28-624.064 45.568-44.288 121.472 24.32 77.632 67.712-98.688 97.408-606.976 629.312-623.872 641.984-44.992 33.856-114.368-38.144-63.040-85.632zM14.976 572.864c0 0-6.976-270.784 284.864-294.080 0 0-12.608 225.6 248.896 403.008l-134.528 140.864c0 0-128.448-226.496-399.232-249.792z" />
<glyph unicode="&#xe90a;" glyph-name="15" d="M492.676 55.182l393.020 393.020-393.020 393.020c-12.258 12.258-12.432 32.892 0.187 45.511 12.707 12.707 32.995 12.703 45.512 0.187l411.661-411.661c7.12-7.12 10.163-17.066 8.991-26.624 1.5-9.755-1.51-20.011-8.991-27.491l-411.661-411.66c-12.258-12.258-32.892-12.432-45.512 0.187-12.707 12.707-12.703 32.995-0.187 45.511z" />
<glyph unicode="&#xe90b;" glyph-name="-1" d="M890.9 332.687c13.878 0 25.128 11.431 25.128 25.531v465.576c0 38.854-31.109 70.464-69.35 70.464h-669.358c-38.24 0-69.35-31.609-69.35-70.464v-751.587c0-38.854 31.11-70.464 69.35-70.464h669.359c38.242 0 69.35 31.609 69.35 70.464v105.27c0 14.101-11.25 25.534-25.128 25.534-13.874 0-25.125-11.432-25.125-25.534v-105.27c0-10.701-8.566-19.404-19.097-19.404h-669.359c-10.531 0-19.096 8.703-19.096 19.404v743.093l343.725-197.533c0.427-0.25 0.859-0.483 1.301-0.697 0.191-0.097 0.379-0.176 0.571-0.263 0.196-0.087 0.393-0.18 0.589-0.263 0.375-0.156 0.748-0.297 1.123-0.424 0.025-0.009 0.043-0.018 0.068-0.024 1.901-0.676 4.094-1.067 6.378-1.067 0 0 0 0 0 0h0.038c0 0 0 0 0 0 2.286 0 4.481 0.391 6.522 1.109l-0.137-0.042c0.024 0.005 0.048 0.018 0.072 0.024 0.513 0.175 0.882 0.318 1.247 0.472l-0.129-0.049c0.192 0.079 0.385 0.171 0.571 0.258 0.196 0.089 0.393 0.171 0.59 0.268 0.388 0.189 0.767 0.394 1.145 0.609l0.148 0.084 343.732 197.538v-457.082c0-14.101 11.25-25.531 25.129-25.531h-0.006zM511.997 658.922l-320.66 184.274h641.318l-320.658-184.274zM633.122 534.089c-4.106 2.718-9.040 3.991-14.038 3.991-9.337 0-19.211-4.596-25.757-13.239l-81.254-106.128-81.373 106.128c-6.484 8.644-16.416 13.233-25.757 13.233-4.935 0-9.875-1.267-13.979-3.986-12.191-7.918-13.917-24.904-3.866-38.017l79.413-103.837h-36.228c-8.742 0-16.833-2.719-22.664-7.309-5.769-4.595-9.337-10.759-9.337-17.707 0-13.955 14.334-25.143 32.001-25.143h51.098v-20.85h-51.098c-8.742 0-16.833-2.904-22.664-7.377-5.769-4.591-9.337-10.876-9.337-17.829 0-13.775 14.334-25.143 32.001-25.143h51.098v-47.626c0-8.882 3.152-17.104 8.085-22.965 4.941-5.916 11.721-9.488 19.217-9.488 15.168 0 27.364 14.506 27.364 32.452v47.626h55.438c8.919 0 16.891 2.904 22.66 7.324 5.832 4.644 9.342 10.93 9.342 17.819 0 13.838-14.282 25.206-32.001 25.206h-55.438v20.85h55.438c8.919 0 16.891 2.841 22.66 7.308 5.832 4.596 9.342 10.822 9.342 17.834 0 13.839-14.282 25.017-32.001 25.017h-33.963l79.407 103.837c10.051 13.114 8.209 30.1-3.809 38.018z" />
<glyph unicode="&#xe90c;" glyph-name="16" d="M915.186 599.821v139.379c0 86.45-70.347 156.8-156.793 156.8h-492.779c-86.45 0-156.795-70.349-156.795-156.8v-139.234c-0.020-0.361 0-0.701 0-1.073v-442.092c0-86.45 70.345-156.802 156.795-156.802h492.779c86.446 0 156.793 70.352 156.793 156.802v442.191c-0.003 0.283 0.011 0.545 0 0.829zM265.614 851.198h492.779c61.748 0 111.995-50.245 111.995-111.997v-131.098c-57.592-58.506-137.771-100.513-227.507-121.605-13.711 59.656-67.121 104.326-130.878 104.326-63.755 0-117.165-44.659-130.878-104.314-89.732 21.092-169.917 63.098-227.505 121.616v131.074c-0.001 61.753 50.244 111.998 111.994 111.998zM645.481 471.582c-0.027 0.231-0.078 0.448-0.103 0.676 0.025-0.228 0.076-0.446 0.103-0.676zM601.6 456.423c0-49.417-40.183-89.6-89.598-89.6-49.417 0-89.595 40.183-89.595 89.6 0 49.412 40.179 89.598 89.595 89.598 49.415 0 89.598-40.185 89.598-89.598zM378.528 471.606c0.022 0.197 0.065 0.403 0.092 0.612-0.025-0.209-0.070-0.415-0.092-0.612zM758.393 44.802h-492.779c-61.75 0-111.995 50.245-111.995 112v390.751c61.506-50.935 139.455-87.893 224.985-106.825 7.809-66.729 64.606-118.706 133.398-118.706 68.786 0 125.583 51.977 133.396 118.693 85.525 18.923 163.477 55.881 224.99 106.819v-390.731c0-61.756-50.248-112.001-111.995-112.001z" />
<glyph unicode="&#xe90d;" glyph-name="17" d="M544.6 73c-13.8 0-25 11.2-25 25s11.2 25 25 25c83.5 0 161.6 48.7 199 124 6.1 12.4 21.1 17.4 33.5 11.3s17.4-21.1 11.3-33.5c-22.2-44.8-56.3-82.6-98.5-109.5-43.6-27.7-93.8-42.3-145.3-42.3zM806 540.3h-50c0 129.6-105.5 235.1-235.1 235.1h-20.8c-129.7 0-235.1-105.5-235.1-235.1h-50c0 38.3 7.6 75.6 22.5 110.8 14.4 33.9 35 64.4 61.2 90.6s56.7 46.8 90.6 61.2c35.2 14.9 72.4 22.5 110.8 22.5h20.8c38.3 0 75.6-7.6 110.8-22.5 33.9-14.4 64.4-35 90.6-61.2s46.8-56.7 61.2-90.6c14.9-35.2 22.5-72.5 22.5-110.8zM808 230.9h-50c-46.9 0-85 38.1-85 85v141c0 46.9 38.1 85 85 85h50c46.9 0 85-38.1 85-85v-141c0-46.8-38.1-85-85-85zM758 491.9c-19.3 0-35-15.7-35-35v-141c0-19.3 15.7-35 35-35h50c19.3 0 35 15.7 35 35v141c0 19.3-15.7 35-35 35h-50zM269.7 230.9h-50c-46.9 0-85 38.1-85 85v141c0 46.9 38.1 85 85 85h50c46.9 0 85-38.1 85-85v-141c0-46.8-38.2-85-85-85zM219.7 491.9c-19.3 0-35-15.7-35-35v-141c0-19.3 15.7-35 35-35h50c19.3 0 35 15.7 35 35v141c0 19.3-15.7 35-35 35h-50z" />
<glyph unicode="&#xe90e;" glyph-name="6" d="M469.345 815.255c40.014 0 72.387 32.334 72.387 72.347s-32.372 72.389-72.387 72.389c-39.896 0-72.35-32.375-72.35-72.389s32.375-72.347 72.35-72.347zM910.529 829.744c-39.896 0-72.35-32.372-72.35-72.387s32.376-72.387 72.35-72.387c40.014 0 72.387 32.372 72.387 72.387s-32.372 72.387-72.387 72.387zM710.376 788.431c40.014 0 72.35 32.372 72.35 72.347 0 40.014-32.336 72.387-72.35 72.387-39.896 0-72.387-32.372-72.387-72.387 0-39.974 32.372-72.347 72.387-72.347zM304.206 828.377c0 72.625-58.879 131.623-131.619 131.623-72.623 0-131.502-58.879-131.502-131.623 0-72.741 58.879-131.699 131.502-131.699 72.74 0 131.619 58.958 131.619 131.699zM498.995 769c-206.529-25.484-260.523-174.904-260.523-174.904-54.114-203.498 152.415-219.407 193.731-273.404 59.509-77.823 7.796-167.46 0-222.596-22.214-155.803 150.131-171.004 209.64-158.798 246.307 50.727 257.491 383.638 230.749 537.433-54.862 314.48-373.596 292.269-373.596 292.269z" />
<glyph unicode="&#xe90f;" glyph-name="5" d="M704 599.962h-384c-11.776 0-21.299-9.626-21.299-21.299 0-11.776 9.626-21.299 21.299-21.299h384c11.776 0 21.299 9.626 21.299 21.299s-9.523 21.299-21.299 21.299zM618.701 471.962h-213.402c-11.776 0-21.299-9.626-21.299-21.299 0-11.776 9.626-21.299 21.299-21.299h213.299c11.776 0 21.299 9.626 21.299 21.299 0.102 11.674-9.523 21.299-21.197 21.299zM512 925.594c-258.765 0-469.299-185.446-469.299-413.286 0-122.982 61.133-237.773 168.038-316.621v-225.28l222.003 134.758c26.931-4.096 53.658-6.144 79.36-6.144 258.765 0 469.299 185.446 469.299 413.286-0.102 227.84-210.637 413.286-469.402 413.286zM512 141.619c-25.805 0-52.838 2.253-80.282 6.861l-7.782 1.331-170.598-103.629v171.52l-9.114 6.349c-100.966 70.963-158.925 175.923-158.925 288.256 0 204.39 191.488 370.586 426.701 370.586 235.315 0 426.701-166.298 426.701-370.586s-191.386-370.688-426.701-370.688z" />
<glyph unicode="&#xe910;" glyph-name="7" d="M713.213 688.358c0-10.886-10.38-19.717-23.090-19.717h-356.178c-12.755 0-23.158 8.83-23.158 19.717 0 10.913 10.403 19.753 23.158 19.753h356.182c12.756 0 23.087-8.843 23.087-19.753zM673.693 719.407l-325.678-0.936c-15.922 0-83.349 77.105-83.349 136.22 0 71.381 60.9 65.212 107.66 65.656 39.986 0.385 81.801 56.416 112.094 34.598 42.209-30.406 52.093-102.171 63.029-102.171 18.667 0-0.51 93.504 92.219 93.504 92.636 0 129.621-21.142 117.401-87.839-12.898-70.421-68.386-137.142-83.375-139.032zM711.582 633.938h-391.42c-126.992-77.628-234.933-229.009-234.933-428.187 0-219.712 201.588-269.752 431.794-269.752 230.147 0 421.749 52.516 421.749 272.321 0 184.506-93.149 344.016-227.189 425.619zM538.716 99.035l-8.393-1.333v-67.535h-47.689v63.869l-9.961 0.398c-42.871 1.705-87.898 11.235-117.625 24.553l17.46 60.644c25.299-11.306 66.461-25.275 114.899-25.275 0.802 0 1.732 0.024 2.57 0.024 0.546 0 1.255-0.024 1.861-0.024 51.437 0 83.417 19.598 83.417 51.255 0 34.27-35.075 51.768-87.645 67.606-90.993 27.24-129.747 61.583-129.747 115.057 0 56.512 44.875 98.164 120.055 111.271l8.393 1.482v62.573h47.609v-59.105l9.592-0.432c37.031-1.482 68.313-7.463 95.147-18.28l-15.406-55.402c-21.345 7.627-52.185 16.458-94.136 16.458-0.981 0-1.863-0.024-2.773-0.024-0.978 0-1.98 0.024-2.943 0.024-68.032 0-73.319-36.12-73.319-47.144 0-28.921 30.597-44.594 94.848-66.882 82.582-26.798 116.238-60.927 116.238-117.836 0.096-59.429-46.874-103.819-122.451-115.942z" />
<glyph unicode="&#xe911;" glyph-name="4" d="M848.8 247.4c35 60.2 99 91.8 159.6 84.6 8.8 37.6 13.6 76.8 13.6 117.2 0 35.6-3.6 70.2-10.6 103.8-61.2-8-126.6 23.8-161.8 85-35.8 62.2-30 136 9.4 184.8-54 50.2-119 88.8-191 112-22.4-59.2-83.8-101.8-156-101.8s-133.6 42.6-156 101.8c-71.4-22.8-135.8-61-189.6-110.4 39.2-49 44.6-123 8.6-185-35.4-61-101-92.6-162-84.4-7.2-34-11-69.6-11-105.8 0-39.6 4.6-78.2 13-115.2 60.4 7 124.4-25 159.2-85.2 34.2-59.4 30.4-129.2-4.2-178 54.2-48.8 118.8-86.4 190.2-108.6 25.2 53.8 83.6 91.4 151.6 91.4s126.4-37.6 151.6-91.4c70.8 22 134.8 59 188.6 107.2-34 48.8-37.6 118.8-3.2 178zM512 227.4c-122.4 0-221.8 99.4-221.8 221.8s99.4 221.8 221.8 221.8 221.8-99.2 221.8-221.8c0-122.4-99.4-221.8-221.8-221.8z" />
<glyph unicode="&#xe912;" glyph-name="3" d="M638.7 292.9c-6.4 0-12.6 2.2-17.6 6.2-1.5 1.3-2.9 2.6-4.3 4l-32.8 32.9c-29.4 29.4-59.7 59.8-89.7 89.5-7.1 6.6-11 16-10.7 25.7 0.2 20.4 0.2 41.3 0.1 61.4v113.6c-0.4 11.2 6.5 21.4 17 25.2 3.6 1.6 7.4 2.5 11.3 2.5 7.6-0.3 14.9-3.7 20-9.3 5.1-5.7 7.8-13.1 7.4-20.8v-91.6l-0.1-35v-9.6c0-7.9 0.1-16.1-0.1-24.3 0-2.8 0.8-4.7 3-6.9 36.6-36.4 72.3-72.2 114.9-114.8 12-12.1 12.7-29.2 1.3-40.6-5.2-5.2-12.3-8.2-19.7-8.1zM511.4 38.3c-191.4 0.2-357.2 132.8-399.6 319.5-27.2 121.4 2.1 248.5 79.7 345.8 57.9 72.4 138.7 123 229.1 143.4 31.1 6.9 62.2 10.5 92.5 10.5 68.6 0 135.8-18 199.7-53.4 12-6.7 17.6-18.1 15.4-30.7-2.8-13-14.2-22.4-27.5-22.5-5.6 0.2-11.1 1.9-15.9 4.9-32.6 18.4-67.9 31.5-104.5 38.9-22.6 4.6-45.6 6.9-68.7 6.9-138.8 0-268.9-84.6-323.6-210.6-65.1-147-23-319.4 102.6-419.8s303.1-103.4 432.1-7.5c62.5 46.2 107.8 111.9 128.8 186.8 26.6 92.8 15.9 183.7-31.8 270.2-6.6 12-6.5 22.6 0.3 32.3 5 7.4 13.5 11.9 22.4 11.8 10.1 0 19.5-5.5 24.8-14.7 14.1-24.4 25.7-50.9 34.6-78.9 17-53.5 22.9-108.6 17.3-163.8-16.1-166.3-132-306.1-292.5-352.6-37.5-10.9-76.2-16.5-115.2-16.5z" />
<glyph unicode="&#xe913;" glyph-name="2" d="M713.2 809.4h-400.4c-13.2 0-23.8-10.7-23.8-23.8v-640.8c0-13.2 10.7-23.8 23.8-23.8h400.4c13.2 0 23.8 10.7 23.8 23.8v640.8c0 13.1-10.6 23.8-23.8 23.8zM513 155.8c-20.1 0-36.4 16.3-36.4 36.4s16.3 36.4 36.4 36.4 36.4-16.3 36.4-36.4c0-20.1-16.3-36.4-36.4-36.4zM703.3 269.2c0-7.4-6-13.4-13.4-13.4h-353.9c-7.4 0-13.4 6-13.4 13.4v485.6c0 7.4 6 13.4 13.4 13.4h354c7.4 0 13.4-6 13.4-13.4v-485.6z" />
<glyph unicode="&#xe914;" glyph-name="1" d="M469.174 31.193c-55.24 0-108.839 10.824-159.306 32.17-48.736 20.615-92.502 50.121-130.081 87.698-37.579 37.579-67.085 81.344-87.698 130.080-21.346 50.467-32.17 104.065-32.17 159.306s10.824 108.839 32.17 159.306c20.613 48.736 50.119 92.502 87.698 130.081s81.345 67.085 130.081 87.698c50.467 21.346 104.065 32.17 159.306 32.17s108.838-10.824 159.306-32.17c48.736-20.613 92.502-50.119 130.080-87.698s67.085-81.345 87.698-130.081c21.345-50.467 32.17-104.065 32.17-159.306 0-55.255-10.83-108.87-32.188-159.349-4.184-9.889-15.59-14.514-25.481-10.33-9.889 4.184-14.515 15.592-10.33 25.481 19.319 45.66 29.114 94.175 29.114 144.197 0 204.221-166.146 370.368-370.368 370.368s-370.367-166.146-370.367-370.367 166.146-370.368 370.367-370.368c96.259 0 187.457 36.749 256.792 103.477 7.735 7.444 20.045 7.212 27.49-0.527 7.447-7.737 7.211-20.045-0.527-27.49-76.615-73.736-177.388-114.345-283.755-114.345zM454.332 478.502c-4.975 0-9.952 1.898-13.748 5.695l-115.117 115.116c-7.593 7.593-7.593 19.903 0 27.496s19.903 7.593 27.496 0l115.117-115.117c7.593-7.593 7.593-19.903 0-27.496-3.796-3.795-8.773-5.694-13.748-5.694zM454.849 478.501c-4.975 0-9.952 1.898-13.748 5.695-7.593 7.593-7.593 19.903 0 27.496l115.117 115.117c7.593 7.593 19.902 7.593 27.495 0 7.594-7.593 7.594-19.903 0-27.496l-115.116-115.117c-3.796-3.796-8.773-5.695-13.748-5.695zM569.965 475.744h-228.772c-10.739 0-19.443 8.704-19.443 19.443s8.704 19.443 19.443 19.443h228.772c10.738 0 19.443-8.704 19.443-19.443s-8.704-19.443-19.443-19.443zM569.965 373.925h-228.772c-10.739 0-19.443 8.705-19.443 19.443s8.704 19.443 19.443 19.443h228.772c10.738 0 19.443-8.705 19.443-19.443s-8.704-19.443-19.443-19.443zM454.332 255.904c-10.739 0-19.443 8.705-19.443 19.443v219.84c0 10.738 8.704 19.443 19.443 19.443s19.443-8.705 19.443-19.443v-219.84c0-10.738-8.704-19.443-19.443-19.443zM828.984 264.83c-1.606 0-3.219 0.199-4.801 0.603-4.997 1.273-9.282 4.48-11.916 8.914l-67.285 113.33c-5.482 9.233-2.442 21.163 6.792 26.644 9.232 5.483 21.162 2.444 26.644-6.792l57.362-96.611 96.609 57.362c9.232 5.483 21.162 2.442 26.644-6.792s2.442-21.162-6.792-26.644l-113.328-67.29c-3.029-1.799-6.463-2.725-9.928-2.725z" />
<glyph unicode="&#xe915;" glyph-name="uniE915" d="M1010.087 512.061v191.401c0 30.957-28.275 55.303-63.152 55.303h-883.252c-35.097 0-63.152-24.76-63.152-55.303v-191.402c37.14-14.188 63.097-46.59 63.097-84.293s-25.955-70.105-63.097-84.293v-191.4c0-30.957 28.275-55.303 63.152-55.303h883.252c35.097 0 63.152 24.76 63.152 55.303v191.401c-37.14 14.188-63.097 46.59-63.097 84.293s25.955 70.105 63.097 84.293v0zM273.952 188.886c0-10.251-9.756-18.561-21.033-18.561-11.615 0-21.033 7.871-21.033 18.561v36.433c0 10.251 9.756 18.561 21.033 18.561 11.615 0 21.033-7.871 21.033-18.561v-36.433zM273.952 299.218c0-10.251-9.756-18.561-21.033-18.561-11.615 0-21.033 7.871-21.033 18.561v36.433c0 10.251 9.756 18.561 21.033 18.561 11.615 0 21.033-7.871 21.033-18.561v-36.433zM273.952 409.551c0-10.251-9.756-18.561-21.033-18.561-11.615 0-21.033 7.871-21.033 18.561v36.433c0 10.251 9.756 18.561 21.033 18.561 11.615 0 21.033-7.871 21.033-18.561v-36.433zM273.952 519.883c0-10.251-9.756-18.561-21.033-18.561-11.615 0-21.033 7.871-21.033 18.561v36.433c0 10.251 9.756 18.561 21.033 18.561 11.615 0 21.033-7.871 21.033-18.561v-36.433zM273.952 630.215c0-10.251-9.756-18.561-21.033-18.561-11.615 0-21.033 7.871-21.033 18.561v36.433c0 10.251 9.756 18.561 21.033 18.561 11.615 0 21.033-7.871 21.033-18.561v-36.433z" />
<glyph unicode="&#xe916;" glyph-name="21" d="M482.249 282.273l441.76 441.762c14.355 14.356 14.355 37.629 0 51.985l-51.968 51.968c-14.355 14.356-37.647 14.356-52.002 0l-441.76-441.78 103.972-103.936zM326.31 334.241c-28.711-28.694-54.695-101.226-25.984-129.937 28.711-28.695 101.243-2.727 129.919 25.983l26.020 26.002-103.972 103.934-25.984-25.984zM856.429 117.235c0-20.276-16.437-36.751-36.751-36.751h-624.759c-20.314 0-36.752 16.474-36.752 36.751v661.513c0 20.315 16.437 36.751 36.752 36.751h477.756v73.502h-514.508c-40.591 0-73.501-32.911-73.501-73.501v-735.014c0-40.59 32.911-73.483 73.501-73.483h698.261c40.592 0 73.501 32.895 73.501 73.483v441.008h-73.501v-404.259z" />
<glyph unicode="&#xe917;" glyph-name="20" d="M934 621v153h-844v-153h844zM934 531h-844v-409h844v409zM90 864h844c49.706 0 90-40.294 90-90v-652c0-49.706-40.294-90-90-90h-844c-49.706 0-90 40.294-90 90v652c0 49.706 40.294 90 90 90zM448 197h-256v90h256v-90z" />
<glyph unicode="&#xe918;" glyph-name="-copy" d="M512 960c282.778 0 512-229.222 512-512s-229.222-512-512-512-512 229.222-512 512 229.222 512 512 512zM341.683 513.869h-60.083v-257.536c0-22.861 12.237-33.843 22.502-39.014 10.445-5.274 24.166-7.629 44.493-7.629h319.898c20.352 0 34.074 2.355 44.518 7.629 10.24 5.171 22.502 16.128 22.502 39.014v257.536h-60.083c-0.005 9.472-0.135 18.885-0.389 28.267l0.030-1.412c-2.867 49.408-20.992 91.059-52.403 120.422-14.541 13.584-31.823 24.446-50.902 31.647l-1.066 0.353c-18.158 6.876-39.152 10.858-61.075 10.858-0.38 0-0.76-0.001-1.14-0.004h0.058c-0.314 0.002-0.685 0.003-1.056 0.003-22.070 0-43.195-4.048-62.673-11.441l1.214 0.404c-20.231-7.668-37.574-18.674-52.222-32.505l0.075 0.070c-31.488-29.747-49.434-71.808-51.942-121.6-0.128-2.765-0.205-15.437-0.256-25.088zM497.075 300.416v113.101h22.963v-113.101h-22.963zM364.646 513.869c0.051 9.651 0.128 21.76 0.256 23.936 4.301 85.914 62.029 143.616 143.642 143.616 82.253 0 138.598-55.731 143.616-141.978 0.128-2.56 0.256-15.462 0.307-25.6h-287.821z" />
<glyph unicode="&#xe919;" glyph-name="19" d="M512-64c-282.788 0-512 229.212-512 512s229.212 512 512 512 512-229.212 512-512-229.212-512-512-512zM733.594 380.006c-0.012 0-0.027 0-0.041 0-10.301 0-18.654-8.339-18.678-18.635v-123.619c0-10.24-8.438-18.678-18.719-18.678h-368.312c0 0 0 0 0 0-10.324 0-18.695 8.357-18.719 18.676v123.619c0 10.338-8.381 18.719-18.719 18.719s-18.719-8.381-18.719-18.719v0-123.617c0.070-30.939 25.167-55.992 56.115-55.992 0.014 0 0.029 0 0.043 0h368.31c0.012 0 0.027 0 0.041 0 30.948 0 56.045 25.054 56.115 55.986v123.624c-0.023 10.32-8.395 18.678-18.719 18.678 0 0 0 0 0 0v0zM344.064 387.052c33.096 0 62.341 16.466 80.118 41.574 19.564-27.898 51.578-45.911 87.798-45.911s68.233 18.013 87.57 45.569l0.228 0.342c18.024-25.233 47.214-41.487 80.2-41.487 54.138 0 98.050 43.781 98.262 97.869v0.020c0 6.554-1.393 13.599-3.072 20.931-0.123 0.696 0 1.352-0.164 2.048l-0.369 1.311c-0.123 0.573-0.082 0.942-0.205 1.556-0.082 0.287-0.328 0.492-0.41 0.819l-50.872 188.744c-2.231 8.005-9.449 13.785-18.020 13.804h-386.255c-0.009 0-0.020 0-0.031 0-8.604 0-15.853-5.805-18.042-13.713l-0.031-0.132-50.79-188.703c-0.082-0.328-0.328-0.492-0.41-0.819-0.123-0.532-0.082-0.942-0.205-1.475l-0.41-1.393c-0.164-0.696 0-1.352-0.082-2.048-1.72-7.373-3.113-14.336-3.113-20.972 0.186-54.128 44.109-97.935 98.262-97.935 0.015 0 0.029 0 0.044 0h-0.002z" />
<glyph unicode="&#xe91a;" glyph-name="18" d="M512 960c-282.304 0-512-229.696-512-512s229.696-512 512-512 512 229.696 512 512-229.696 512-512 512zM512 96c-0.431-0.010-0.938-0.016-1.447-0.016-35.346 0-64 28.654-64 64s28.654 64 64 64c0.498 0 0.994-0.006 1.489-0.017l-0.074 0.001c34.732-0.792 62.585-29.136 62.585-63.984 0-34.837-27.835-63.174-62.478-63.982l-0.075-0.001zM544 418.656v-66.656c0-17.673-14.327-32-32-32s-32 14.327-32 32v0 96c0 17.673 14.327 32 32 32v0c70.592 0 128 57.408 128 128s-57.408 128-128 128c-50.912 0-96.96-30.144-117.376-76.8-5.064-11.388-16.277-19.185-29.312-19.185-17.665 0-31.985 14.32-31.985 31.985 0 4.63 0.984 9.030 2.754 13.003l-0.081-0.203c30.413 68.372 97.738 115.186 175.998 115.2h0.002c105.888 0 192-86.112 192-192-0.122-94.697-68.668-173.349-158.846-189.176l-1.154-0.168z" />
<glyph unicode="&#xe91b;" glyph-name="uniE91B" d="M512.003 950.387c-277.429 0-502.39-224.905-502.39-502.383 0-277.434 224.962-502.391 502.39-502.391 277.478 0 502.384 224.957 502.384 502.391 0 277.478-224.906 502.383-502.384 502.383zM805.054 238.584h-586.104v279.337l204.948-142.122c26.132-17.869 57.22-25.561 88.104-25.716 30.727 0.104 61.765 7.847 87.975 25.716l205.077 142.122v-279.337zM805.054 599.42l-243.215-168.514c-11.933-8.368-30.805-13.89-49.836-13.793-19.211-0.098-38.087 5.426-49.916 13.793l-243.137 168.414v58.041h586.103v-57.941z" />
</font>
</defs>
</svg>
